{"accessors" : [{"bufferView" : 0, "byteOffset" : 0, "componentType" : 5123, "count" : 180, "type" : "SCALAR", "max" : [139], "min" : [0]}, {"bufferView" : 1, "byteOffset" : 0, "componentType" : 5126, "count" : 140, "type" : "VEC3", "max" : [44.54999923706055, 250, 44.54999923706055], "min" : [-44.54999923706055, -250, -44.54999923706055], "name" : "POSITION"}, {"bufferView" : 1, "byteOffset" : 12, "componentType" : 5126, "count" : 140, "type" : "VEC3", "max" : [1.0000044107437134, 1.0000044107437134, 1.0000044107437134], "min" : [-1.0000044107437134, -1.0000044107437134, -1.0000044107437134], "name" : "NORMAL"}, {"bufferView" : 1, "byteOffset" : 24, "componentType" : 5126, "count" : 140, "type" : "VEC2", "max" : [1, -0], "min" : [0, -1], "name" : "TEXCOORD_0"}, {"bufferView" : 0, "byteOffset" : 360, "componentType" : 5123, "count" : 180, "type" : "SCALAR", "max" : [139], "min" : [0]}, {"bufferView" : 2, "byteOffset" : 0, "componentType" : 5126, "count" : 140, "type" : "VEC3", "max" : [20, 15, 20], "min" : [-20, -15, -20], "name" : "POSITION"}, {"bufferView" : 2, "byteOffset" : 12, "componentType" : 5126, "count" : 140, "type" : "VEC3", "max" : [1.0000044107437134, 1.0000044107437134, 1.0000044107437134], "min" : [-1.0000044107437134, -1.0000044107437134, -1.0000044107437134], "name" : "NORMAL"}, {"bufferView" : 2, "byteOffset" : 24, "componentType" : 5126, "count" : 140, "type" : "VEC2", "max" : [1, -0], "min" : [0, -1], "name" : "TEXCOORD_0"}, {"bufferView" : 0, "byteOffset" : 720, "componentType" : 5123, "count" : 1200, "type" : "SCALAR", "max" : [999], "min" : [0]}, {"bufferView" : 3, "byteOffset" : 0, "componentType" : 5126, "count" : 1000, "type" : "VEC3", "max" : [120.74998474121094, 120.74998474121094, 42.36956787109375], "min" : [-0.00043711374746635556, 0, -42.36956787109375], "name" : "POSITION"}, {"bufferView" : 3, "byteOffset" : 12, "componentType" : 5126, "count" : 1000, "type" : "VEC3", "max" : [1.0000044107437134, 1.0000044107437134, 0.9510607123374939], "min" : [-1.0000044107437134, -1.0000044107437134, -0.9510607123374939], "name" : "NORMAL"}, {"bufferView" : 3, "byteOffset" : 24, "componentType" : 5126, "count" : 1000, "type" : "VEC2", "max" : [1, -0], "min" : [0, -1], "name" : "TEXCOORD_0"}, {"bufferView" : 0, "byteOffset" : 3120, "componentType" : 5123, "count" : 180, "type" : "SCALAR", "max" : [139], "min" : [0]}, {"bufferView" : 4, "byteOffset" : 0, "componentType" : 5126, "count" : 140, "type" : "VEC3", "max" : [20, 15, 20], "min" : [-20, -15, -20], "name" : "POSITION"}, {"bufferView" : 4, "byteOffset" : 12, "componentType" : 5126, "count" : 140, "type" : "VEC3", "max" : [1.0000044107437134, 1.0000044107437134, 1.0000044107437134], "min" : [-1.0000044107437134, -1.0000044107437134, -1.0000044107437134], "name" : "NORMAL"}, {"bufferView" : 4, "byteOffset" : 24, "componentType" : 5126, "count" : 140, "type" : "VEC2", "max" : [1, -0], "min" : [0, -1], "name" : "TEXCOORD_0"}, {"bufferView" : 0, "byteOffset" : 3480, "componentType" : 5123, "count" : 180, "type" : "SCALAR", "max" : [139], "min" : [0]}, {"bufferView" : 5, "byteOffset" : 0, "componentType" : 5126, "count" : 140, "type" : "VEC3", "max" : [44.54999923706055, 250, 44.54999923706055], "min" : [-44.54999923706055, -250, -44.54999923706055], "name" : "POSITION"}, {"bufferView" : 5, "byteOffset" : 12, "componentType" : 5126, "count" : 140, "type" : "VEC3", "max" : [1.0000044107437134, 1.0000044107437134, 1.0000044107437134], "min" : [-1.0000044107437134, -1.0000044107437134, -1.0000044107437134], "name" : "NORMAL"}, {"bufferView" : 5, "byteOffset" : 24, "componentType" : 5126, "count" : 140, "type" : "VEC2", "max" : [1, -0], "min" : [0, -1], "name" : "TEXCOORD_0"}, {"bufferView" : 0, "byteOffset" : 3840, "componentType" : 5123, "count" : 180, "type" : "SCALAR", "max" : [139], "min" : [0]}, {"bufferView" : 6, "byteOffset" : 0, "componentType" : 5126, "count" : 140, "type" : "VEC3", "max" : [20, 15, 20], "min" : [-20, -15, -20], "name" : "POSITION"}, {"bufferView" : 6, "byteOffset" : 12, "componentType" : 5126, "count" : 140, "type" : "VEC3", "max" : [1.0000044107437134, 1.0000044107437134, 1.0000044107437134], "min" : [-1.0000044107437134, -1.0000044107437134, -1.0000044107437134], "name" : "NORMAL"}, {"bufferView" : 6, "byteOffset" : 24, "componentType" : 5126, "count" : 140, "type" : "VEC2", "max" : [1, -0], "min" : [0, -1], "name" : "TEXCOORD_0"}, {"bufferView" : 0, "byteOffset" : 4200, "componentType" : 5123, "count" : 1200, "type" : "SCALAR", "max" : [999], "min" : [0]}, {"bufferView" : 7, "byteOffset" : 0, "componentType" : 5126, "count" : 1000, "type" : "VEC3", "max" : [120.74998474121094, 120.74998474121094, 42.36956787109375], "min" : [-0.00043711374746635556, 0, -42.36956787109375], "name" : "POSITION"}, {"bufferView" : 7, "byteOffset" : 12, "componentType" : 5126, "count" : 1000, "type" : "VEC3", "max" : [1.0000044107437134, 1.0000044107437134, 0.9510607123374939], "min" : [-1.0000044107437134, -1.0000044107437134, -0.9510607123374939], "name" : "NORMAL"}, {"bufferView" : 7, "byteOffset" : 24, "componentType" : 5126, "count" : 1000, "type" : "VEC2", "max" : [1, -0], "min" : [0, -1], "name" : "TEXCOORD_0"}, {"bufferView" : 0, "byteOffset" : 6600, "componentType" : 5123, "count" : 180, "type" : "SCALAR", "max" : [139], "min" : [0]}, {"bufferView" : 8, "byteOffset" : 0, "componentType" : 5126, "count" : 140, "type" : "VEC3", "max" : [20, 15, 20], "min" : [-20, -15, -20], "name" : "POSITION"}, {"bufferView" : 8, "byteOffset" : 12, "componentType" : 5126, "count" : 140, "type" : "VEC3", "max" : [1.0000044107437134, 1.0000044107437134, 1.0000044107437134], "min" : [-1.0000044107437134, -1.0000044107437134, -1.0000044107437134], "name" : "NORMAL"}, {"bufferView" : 8, "byteOffset" : 24, "componentType" : 5126, "count" : 140, "type" : "VEC2", "max" : [1, -0], "min" : [0, -1], "name" : "TEXCOORD_0"}, {"bufferView" : 0, "byteOffset" : 6960, "componentType" : 5123, "count" : 180, "type" : "SCALAR", "max" : [139], "min" : [0]}, {"bufferView" : 9, "byteOffset" : 0, "componentType" : 5126, "count" : 140, "type" : "VEC3", "max" : [44.54999923706055, 250, 44.54999923706055], "min" : [-44.54999923706055, -250, -44.54999923706055], "name" : "POSITION"}, {"bufferView" : 9, "byteOffset" : 12, "componentType" : 5126, "count" : 140, "type" : "VEC3", "max" : [1.0000044107437134, 1.0000044107437134, 1.0000044107437134], "min" : [-1.0000044107437134, -1.0000044107437134, -1.0000044107437134], "name" : "NORMAL"}, {"bufferView" : 9, "byteOffset" : 24, "componentType" : 5126, "count" : 140, "type" : "VEC2", "max" : [1, -0], "min" : [0, -1], "name" : "TEXCOORD_0"}, {"bufferView" : 0, "byteOffset" : 7320, "componentType" : 5123, "count" : 180, "type" : "SCALAR", "max" : [139], "min" : [0]}, {"bufferView" : 10, "byteOffset" : 0, "componentType" : 5126, "count" : 140, "type" : "VEC3", "max" : [20, 15, 20], "min" : [-20, -15, -20], "name" : "POSITION"}, {"bufferView" : 10, "byteOffset" : 12, "componentType" : 5126, "count" : 140, "type" : "VEC3", "max" : [1.0000044107437134, 1.0000044107437134, 1.0000044107437134], "min" : [-1.0000044107437134, -1.0000044107437134, -1.0000044107437134], "name" : "NORMAL"}, {"bufferView" : 10, "byteOffset" : 24, "componentType" : 5126, "count" : 140, "type" : "VEC2", "max" : [1, -0], "min" : [0, -1], "name" : "TEXCOORD_0"}], "asset" : {"generator" : "Aspose.3D 23.4.0", "version" : "2.0"}, "buffers" : [{"uri" : "data:application/octet-stream;base64,", "byteLength" : 130604}], "bufferViews" : [{"buffer" : 0, "byteOffset" : 0, "byteLength" : 7680, "target" : 34963}, {"buffer" : 0, "byteOffset" : 7684, "byteLength" : 5760, "byteStride" : 32, "target" : 34962}, {"buffer" : 0, "byteOffset" : 13448, "byteLength" : 5760, "byteStride" : 32, "target" : 34962}, {"buffer" : 0, "byteOffset" : 19212, "byteLength" : 38400, "byteStride" : 32, "target" : 34962}, {"buffer" : 0, "byteOffset" : 57616, "byteLength" : 5760, "byteStride" : 32, "target" : 34962}, {"buffer" : 0, "byteOffset" : 63380, "byteLength" : 5760, "byteStride" : 32, "target" : 34962}, {"buffer" : 0, "byteOffset" : 69144, "byteLength" : 5760, "byteStride" : 32, "target" : 34962}, {"buffer" : 0, "byteOffset" : 74908, "byteLength" : 38400, "byteStride" : 32, "target" : 34962}, {"buffer" : 0, "byteOffset" : 113312, "byteLength" : 5760, "byteStride" : 32, "target" : 34962}, {"buffer" : 0, "byteOffset" : 119076, "byteLength" : 5760, "byteStride" : 32, "target" : 34962}, {"buffer" : 0, "byteOffset" : 124840, "byteLength" : 5760, "byteStride" : 32, "target" : 34962}], "materials" : [{"name" : "", "pbrMetallicRoughness" : {"baseColorFactor" : [0, 0.47999998927116394, 0, 1], "metallicFactor" : 0, "roughnessFactor" : 0}, "emissiveFactor" : [0, 0, 0], "alphaMode" : "OPAQUE", "doubleSided" : false}, {"name" : "", "pbrMetallicRoughness" : {"baseColorFactor" : [0, 0.47999998927116394, 0, 1], "metallicFactor" : 0, "roughnessFactor" : 0}, "emissiveFactor" : [0, 0, 0], "alphaMode" : "OPAQUE", "doubleSided" : false}, {"name" : "", "pbrMetallicRoughness" : {"baseColorFactor" : [0, 0.47999998927116394, 0, 1], "metallicFactor" : 0, "roughnessFactor" : 0}, "emissiveFactor" : [0, 0, 0], "alphaMode" : "OPAQUE", "doubleSided" : false}, {"name" : "", "pbrMetallicRoughness" : {"baseColorFactor" : [0, 0.47999998927116394, 0, 1], "metallicFactor" : 0, "roughnessFactor" : 0}, "emissiveFactor" : [0, 0, 0], "alphaMode" : "OPAQUE", "doubleSided" : false}, {"name" : "", "pbrMetallicRoughness" : {"baseColorFactor" : [0, 0.47999998927116394, 0, 1], "metallicFactor" : 0, "roughnessFactor" : 0}, "emissiveFactor" : [0, 0, 0], "alphaMode" : "OPAQUE", "doubleSided" : false}, {"name" : "", "pbrMetallicRoughness" : {"baseColorFactor" : [0, 0.47999998927116394, 0, 1], "metallicFactor" : 0, "roughnessFactor" : 0}, "emissiveFactor" : [0, 0, 0], "alphaMode" : "OPAQUE", "doubleSided" : false}, {"name" : "", "pbrMetallicRoughness" : {"baseColorFactor" : [0, 0.47999998927116394, 0, 1], "metallicFactor" : 0, "roughnessFactor" : 0}, "emissiveFactor" : [0, 0, 0], "alphaMode" : "OPAQUE", "doubleSided" : false}, {"name" : "", "pbrMetallicRoughness" : {"baseColorFactor" : [0, 0.47999998927116394, 0, 1], "metallicFactor" : 0, "roughnessFactor" : 0}, "emissiveFactor" : [0, 0, 0], "alphaMode" : "OPAQUE", "doubleSided" : false}, {"name" : "", "pbrMetallicRoughness" : {"baseColorFactor" : [0, 0.47999998927116394, 0, 1], "metallicFactor" : 0, "roughnessFactor" : 0}, "emissiveFactor" : [0, 0, 0], "alphaMode" : "OPAQUE", "doubleSided" : false}, {"name" : "", "pbrMetallicRoughness" : {"baseColorFactor" : [0, 0.47999998927116394, 0, 1], "metallicFactor" : 0, "roughnessFactor" : 0}, "emissiveFactor" : [0, 0, 0], "alphaMode" : "OPAQUE", "doubleSided" : false}], "meshes" : [{"primitives" : [{"attributes" : {"POSITION" : 1, "NORMAL" : 2, "TEXCOORD_0" : 3}, "indices" : 0, "material" : 0, "mode" : 4}], "name" : ""}, {"primitives" : [{"attributes" : {"POSITION" : 5, "NORMAL" : 6, "TEXCOORD_0" : 7}, "indices" : 4, "material" : 1, "mode" : 4}], "name" : ""}, {"primitives" : [{"attributes" : {"POSITION" : 9, "NORMAL" : 10, "TEXCOORD_0" : 11}, "indices" : 8, "material" : 2, "mode" : 4}], "name" : ""}, {"primitives" : [{"attributes" : {"POSITION" : 13, "NORMAL" : 14, "TEXCOORD_0" : 15}, "indices" : 12, "material" : 3, "mode" : 4}], "name" : ""}, {"primitives" : [{"attributes" : {"POSITION" : 17, "NORMAL" : 18, "TEXCOORD_0" : 19}, "indices" : 16, "material" : 4, "mode" : 4}], "name" : ""}, {"primitives" : [{"attributes" : {"POSITION" : 21, "NORMAL" : 22, "TEXCOORD_0" : 23}, "indices" : 20, "material" : 5, "mode" : 4}], "name" : ""}, {"primitives" : [{"attributes" : {"POSITION" : 25, "NORMAL" : 26, "TEXCOORD_0" : 27}, "indices" : 24, "material" : 6, "mode" : 4}], "name" : ""}, {"primitives" : [{"attributes" : {"POSITION" : 29, "NORMAL" : 30, "TEXCOORD_0" : 31}, "indices" : 28, "material" : 7, "mode" : 4}], "name" : ""}, {"primitives" : [{"attributes" : {"POSITION" : 33, "NORMAL" : 34, "TEXCOORD_0" : 35}, "indices" : 32, "material" : 8, "mode" : 4}], "name" : ""}, {"primitives" : [{"attributes" : {"POSITION" : 37, "NORMAL" : 38, "TEXCOORD_0" : 39}, "indices" : 36, "material" : 9, "mode" : 4}], "name" : ""}], "nodes" : [{"matrix" : [0, -0.0010000000474974513, 0, 0, 0.0010000000474974513, 0, -2.220446154715841E-19, 0, 2.220446154715841E-19, 0, 0.0010000000474974513, 0, -3.9162960052490234, -3.1279330253601074, 1.9857150316238403, 1], "mesh" : 0, "name" : "Part 10 of /1237-TEST-AS03"}, {"matrix" : [0, 0.0010000000474974513, 0, 0, 2.220446154715841E-19, 0, -0.0010000000474974513, 0, -0.0010000000474974513, 0, -2.220446154715841E-19, 0, -3.9162964820861816, -3.1279330253601074, 1.9337650537490845, 1], "mesh" : 1, "name" : "Part 4 of /1237-TEST-AS03"}, {"matrix" : [0, 0, -0.0010000000474974513, 0, 0.0010000000474974513, 0, 0, 0, 0, -0.0010000000474974513, 0, 0, -3.666300058364868, -3.127929925918579, 2.0619099140167236, 1], "mesh" : 2, "name" : "Part 9 of /1237-TEST-AS03"}, {"matrix" : [0, -0.0010000000474974513, 0, 0, 0.0007071000291034578, 0, -0.000707100029103458, 0, 0.000707100029103458, 0, 0.0007071000291034578, 0, -3.5703063011169434, -3.1279330253601074, 1.9659252166748047, 1], "mesh" : 3, "name" : "Part 6 of /1237-TEST-AS03"}, {"matrix" : [0, -0.0010000000474974513, 0, 0, 2.220446154715841E-19, 0, 0.0010000000474974513, 0, -0.0010000000474974513, 0, 2.220446154715841E-19, 0, -3.5900962352752686, -3.1279330253601074, 2.3119149208068848, 1], "mesh" : 4, "name" : "Part 8 of /1237-TEST-AS03"}, {"matrix" : [0, 0.0010000000474974513, 0, 0, -0.0010000000474974513, 0, -2.220446154715841E-19, 0, -2.220446154715841E-19, 0, 0.0010000000474974513, 0, -3.6420462131500244, -3.1279330253601074, 2.3119149208068848, 1], "mesh" : 5, "name" : "Part 3 of /1237-TEST-AS03"}, {"matrix" : [-0.0010000000474974513, 0, 0, 0, 0, 0, 0.0010000000474974513, 0, 0, 0.0010000000474974513, 0, 0, -3.5139000415802, -3.127929925918579, 2.561919927597046, 1], "mesh" : 6, "name" : "Part 7 of /1237-TEST-AS03"}, {"matrix" : [0, 0.0010000000474974513, 0, 0, -0.000707100029103458, 0, 0.0007071000291034578, 0, 0.0007071000291034578, 0, 0.000707100029103458, 0, -3.6098859310150146, -3.1279330253601074, 2.657904863357544, 1], "mesh" : 7, "name" : "Part 11 of /1237-TEST-AS03"}, {"matrix" : [0, -0.0010000000474974513, 0, 0, 0.0010000000474974513, 0, -2.220446154715841E-19, 0, 2.220446154715841E-19, 0, 0.0010000000474974513, 0, -3.2638962268829346, -3.1279330253601074, 2.6381149291992188, 1], "mesh" : 8, "name" : "Part 5 of /1237-TEST-AS03"}, {"matrix" : [0, 0.0010000000474974513, 0, 0, 2.220446154715841E-19, 0, -0.0010000000474974513, 0, -0.0010000000474974513, 0, -2.220446154715841E-19, 0, -3.2638962268829346, -3.1279330253601074, 2.586164951324463, 1], "mesh" : 9, "name" : "Part 2 of /1237-TEST-AS03"}, {"children" : [0, 1, 2, 3, 4, 5, 6, 7, 8, 9], "name" : "/1237-TEST-AS03"}, {"children" : [10], "name" : "/BLOCK"}, {"children" : [11], "name" : "/ROOT"}], "scene" : 0, "scenes" : [{"nodes" : [12]}]}